<mxfile host="app.diagrams.net" agent="Mozilla/5.0 (Windows NT 10.0; Win64; x64) AppleWebKit/537.36 (KHTML, like Gecko) Chrome/133.0.0.0 Safari/537.36" version="26.0.16" pages="2">
  <diagram name="模块" id="URdqgQ9ywC9-zDl-EaOu">
    <mxGraphModel dx="1434" dy="746" grid="1" gridSize="10" guides="1" tooltips="1" connect="1" arrows="1" fold="1" page="1" pageScale="1" pageWidth="827" pageHeight="1169" math="0" shadow="0">
      <root>
        <mxCell id="0" />
        <mxCell id="1" parent="0" />
        <mxCell id="feOOVioLAqPZcGWc1d9--1" value="ActualPositionDB" style="rounded=0;whiteSpace=wrap;html=1;" vertex="1" parent="1">
          <mxGeometry x="40" y="40" width="160" height="120" as="geometry" />
        </mxCell>
        <mxCell id="feOOVioLAqPZcGWc1d9--2" value="DBConnectionPool&lt;div&gt;//&amp;nbsp;链接 SQL 数据库&lt;/div&gt;" style="rounded=0;whiteSpace=wrap;html=1;" vertex="1" parent="1">
          <mxGeometry x="280" y="40" width="160" height="120" as="geometry" />
        </mxCell>
        <mxCell id="feOOVioLAqPZcGWc1d9--4" value="" style="rhombus;whiteSpace=wrap;html=1;fillColor=#f5f5f5;strokeColor=#666666;fontColor=#333333;" vertex="1" parent="1">
          <mxGeometry x="160" y="130" width="30" height="30" as="geometry" />
        </mxCell>
        <mxCell id="feOOVioLAqPZcGWc1d9--3" style="edgeStyle=orthogonalEdgeStyle;rounded=0;orthogonalLoop=1;jettySize=auto;html=1;exitX=1;exitY=0.5;exitDx=0;exitDy=0;" edge="1" parent="1" source="feOOVioLAqPZcGWc1d9--4" target="feOOVioLAqPZcGWc1d9--2">
          <mxGeometry relative="1" as="geometry" />
        </mxCell>
      </root>
    </mxGraphModel>
  </diagram>
  <diagram id="OAtjJLmcrKw9Vd1Cq_iK" name="流程">
    <mxGraphModel dx="1834" dy="1146" grid="1" gridSize="10" guides="1" tooltips="1" connect="1" arrows="1" fold="1" page="0" pageScale="1" pageWidth="827" pageHeight="1169" math="0" shadow="0">
      <root>
        <mxCell id="0" />
        <mxCell id="1" parent="0" />
        <mxCell id="i-nkXKOmJGmnzbzkcPUM-1" value="PositionMgr.Init( )&lt;div&gt;&lt;div&gt;&lt;br&gt;&lt;/div&gt;&lt;div&gt;初始化时在 Init 函数中通过 json 配置文件解析出&amp;nbsp;ProductConfig，然后存入&amp;nbsp;hash_products_&amp;nbsp;数据结构中&amp;nbsp;&lt;/div&gt;&lt;/div&gt;" style="rounded=0;whiteSpace=wrap;html=1;align=left;" vertex="1" parent="1">
          <mxGeometry x="40" y="600" width="360" height="120" as="geometry" />
        </mxCell>
        <mxCell id="i-nkXKOmJGmnzbzkcPUM-2" value="&lt;span style=&quot;text-align: left;&quot;&gt;hash_products_&amp;nbsp;&lt;/span&gt;&lt;div&gt;&lt;span style=&quot;text-align: left;&quot;&gt;string : Product&lt;/span&gt;&lt;/div&gt;" style="rounded=0;whiteSpace=wrap;html=1;fillColor=#ffe6cc;strokeColor=#d79b00;" vertex="1" parent="1">
          <mxGeometry x="-160" y="680" width="160" height="40" as="geometry" />
        </mxCell>
        <mxCell id="i-nkXKOmJGmnzbzkcPUM-3" value="Plugin&amp;nbsp;构造函数&lt;div&gt;&lt;br&gt;&lt;/div&gt;&lt;div&gt;调用 InitConfig( )&amp;nbsp;进行模块配置初始化&lt;/div&gt;" style="rounded=0;whiteSpace=wrap;html=1;align=left;" vertex="1" parent="1">
          <mxGeometry x="40" y="-120" width="360" height="80" as="geometry" />
        </mxCell>
        <mxCell id="i-nkXKOmJGmnzbzkcPUM-5" value="" style="edgeStyle=orthogonalEdgeStyle;rounded=0;orthogonalLoop=1;jettySize=auto;html=1;" edge="1" parent="1" source="i-nkXKOmJGmnzbzkcPUM-4" target="i-nkXKOmJGmnzbzkcPUM-3">
          <mxGeometry relative="1" as="geometry" />
        </mxCell>
        <mxCell id="i-nkXKOmJGmnzbzkcPUM-4" value="外部框架：create_plugin.h&lt;div&gt;&lt;br&gt;&lt;/div&gt;&lt;div&gt;创建 Plugin&amp;nbsp;对象&lt;br&gt;&lt;div&gt;&lt;br&gt;&lt;/div&gt;&lt;/div&gt;" style="rounded=0;whiteSpace=wrap;html=1;align=left;" vertex="1" parent="1">
          <mxGeometry x="40" y="-240" width="360" height="80" as="geometry" />
        </mxCell>
        <mxCell id="i-nkXKOmJGmnzbzkcPUM-6" value="&lt;div&gt;InitConfig( )&lt;/div&gt;&lt;div&gt;&lt;br&gt;&lt;/div&gt;&lt;div&gt;1.&amp;nbsp;初始化 IIMgr，用于管理股票名称到内部整型 index&amp;nbsp;的单例模块，维护了正反管理两者映射的数据结构，使用外部 InstrumentIndex.csv&amp;nbsp;文件进行初始化&lt;/div&gt;&lt;div&gt;&lt;br&gt;&lt;/div&gt;&lt;div&gt;2.&amp;nbsp;初始化 DIMgr，用于管理交易日到&amp;nbsp;index&amp;nbsp;的单例模块，也是维护了正反&lt;span style=&quot;background-color: transparent; color: light-dark(rgb(0, 0, 0), rgb(255, 255, 255));&quot;&gt;查询&lt;/span&gt;&lt;span style=&quot;background-color: transparent; color: light-dark(rgb(0, 0, 0), rgb(255, 255, 255));&quot;&gt;数据结构使用 DateIndex.csv&amp;nbsp;进行初始化&lt;/span&gt;&lt;/div&gt;&lt;div&gt;&lt;span style=&quot;background-color: transparent; color: light-dark(rgb(0, 0, 0), rgb(255, 255, 255));&quot;&gt;&lt;br&gt;&lt;/span&gt;&lt;/div&gt;&lt;div&gt;&lt;span style=&quot;background-color: transparent; color: light-dark(rgb(0, 0, 0), rgb(255, 255, 255));&quot;&gt;3.&amp;nbsp;解析&amp;nbsp;projectconfig&amp;nbsp;json&amp;nbsp;文件&lt;/span&gt;&lt;/div&gt;&lt;div&gt;&lt;span style=&quot;background-color: transparent; color: light-dark(rgb(0, 0, 0), rgb(255, 255, 255));&quot;&gt;3.1&amp;nbsp;设置是否 replay&amp;nbsp;模式&lt;/span&gt;&lt;/div&gt;&lt;div&gt;&lt;span style=&quot;background-color: transparent; color: light-dark(rgb(0, 0, 0), rgb(255, 255, 255));&quot;&gt;3.2&amp;nbsp;设置是否&amp;nbsp;debug&amp;nbsp;模式&lt;/span&gt;&lt;/div&gt;&lt;div&gt;&lt;span style=&quot;background-color: transparent; color: light-dark(rgb(0, 0, 0), rgb(255, 255, 255));&quot;&gt;3.3&amp;nbsp;从配置得到 csv&amp;nbsp;输出路径，初始化 CSVMgr，用于以&amp;nbsp;csv&amp;nbsp;形式进行数据记录的单例模块&lt;/span&gt;&lt;/div&gt;&lt;div&gt;&lt;span style=&quot;background-color: transparent; color: light-dark(rgb(0, 0, 0), rgb(255, 255, 255));&quot;&gt;3.4&amp;nbsp;从配置得到&amp;nbsp;signal_address&amp;nbsp;信号地址，本地保存&lt;/span&gt;&lt;/div&gt;&lt;div&gt;&lt;span style=&quot;background-color: transparent; color: light-dark(rgb(0, 0, 0), rgb(255, 255, 255));&quot;&gt;3.5&amp;nbsp;从配置&amp;nbsp;black_white_database&amp;nbsp;字段得到黑白名单数据库字段，得到dsn，然后用于初始化 BlackWhiteList&amp;nbsp;单例对象。这个对象从对应的黑白名单数据库中获取到一系列股票和对应的bool字段，标识该股票是否处于黑白名单中&lt;/span&gt;&lt;/div&gt;&lt;div&gt;&lt;span style=&quot;background-color: transparent; color: light-dark(rgb(0, 0, 0), rgb(255, 255, 255));&quot;&gt;3.6&amp;nbsp;从配置&amp;nbsp;realtime_signal_detabase&amp;nbsp;字段得到信号数据库的 dsn&amp;nbsp;用于更新 RealTimeSignalDB&amp;nbsp;单例对象。&amp;nbsp;&lt;/span&gt;&lt;/div&gt;&lt;div&gt;&lt;br&gt;&lt;/div&gt;&lt;div&gt;&lt;br&gt;&lt;/div&gt;" style="rounded=0;whiteSpace=wrap;html=1;align=left;" vertex="1" parent="1">
          <mxGeometry x="40" width="360" height="440" as="geometry" />
        </mxCell>
        <mxCell id="i-nkXKOmJGmnzbzkcPUM-7" value="所以黑白名单在具体业务层面具体对应什么含义？为什么不区分黑名单和白名单？" style="rounded=0;whiteSpace=wrap;html=1;" vertex="1" parent="1">
          <mxGeometry x="-160" y="280" width="170" height="60" as="geometry" />
        </mxCell>
      </root>
    </mxGraphModel>
  </diagram>
</mxfile>
